<?xml version="1.0" encoding="UTF-8"?>
<svg width="160px" height="67px" viewBox="0 0 160 67" version="1.1" xmlns="http://www.w3.org/2000/svg" xmlns:xlink="http://www.w3.org/1999/xlink">
    <!-- Generator: Sketch 39.1 (31720) - http://www.bohemiancoding.com/sketch -->
    <title>sml</title>
    <desc>Created with Sketch.</desc>
    <defs></defs>
    <g id="Page-1" stroke="none" stroke-width="1" fill="none" fill-rule="evenodd">
        <path d="M0,52.0174892 L17.9309434,50.3309153 C18.6706724,52.461335 19.7062776,53.9851541 21.03779,54.9024182 C22.3693023,55.8196822 24.1446255,56.2783074 26.3638128,56.2783074 C28.7901242,56.2783074 30.6690079,55.7605048 32.0005202,54.7248841 C33.0361409,53.9555658 33.5539435,52.9939324 33.5539435,51.8399551 C33.5539435,50.5380319 32.873403,49.5320154 31.5123015,48.8218755 C30.5358591,48.3188597 27.9468461,47.6974966 23.7451849,46.9577675 C17.4722823,45.8629685 13.1153433,44.8495548 10.6742373,43.9174962 C8.23313134,42.9854375 6.17671533,41.4098382 4.5049276,39.190651 C2.83313987,36.9714637 1.99725854,34.4416282 1.99725854,31.6010685 C1.99725854,28.4942063 2.89971449,25.8164272 4.70465346,23.5676508 C6.50959242,21.3188744 8.99504487,19.6397146 12.1610854,18.5301209 C15.3271258,17.4205273 19.5731071,16.8657388 24.8991565,16.8657388 C30.5210975,16.8657388 34.6709155,17.2947752 37.3487348,18.152861 C40.026554,19.0109467 42.2605024,20.3424391 44.0506468,22.1473781 C45.8407911,23.952317 47.3276243,26.3933864 48.5111908,29.4706594 L31.3791509,31.1572333 C30.9353134,29.6481859 30.1955954,28.538609 29.1599747,27.828469 C27.7396949,26.8816158 26.0235492,26.4081963 24.011486,26.4081963 C21.9698338,26.4081963 20.4830006,26.7706581 19.550942,27.4955926 C18.6188833,28.2205271 18.152861,29.1007915 18.152861,30.1364122 C18.152861,31.2903896 18.7446354,32.1632568 19.9282019,32.7550401 C21.1117684,33.3468234 23.685987,33.8794203 27.6509349,34.3528469 C33.6575351,35.0333977 38.1254318,35.9802367 41.0547589,37.1933924 C43.9840861,38.4065481 46.2254316,40.1374882 47.7788627,42.3862646 C49.3322938,44.6350411 50.1089977,47.1056991 50.1089977,49.798313 C50.1089977,52.520516 49.2879107,55.1687064 47.6457121,57.7429637 C46.0035136,60.3172209 43.4145006,62.3662397 39.8785956,63.8900816 C36.3426906,65.4139235 31.5271264,66.1758331 25.4317588,66.1758331 C16.8213122,66.1758331 10.6890501,64.9479012 7.03478842,62.4920006 C3.38052674,60.0361001 1.03562072,56.5446312 0,52.0174892 L0,52.0174892 Z M54.8525517,17.9309434 L71.7182905,17.9309434 L71.7182905,24.8103895 C74.1446019,21.9402406 76.5930685,19.898619 79.0637636,18.6854633 C81.5344588,17.4723076 84.5155223,16.8657388 88.0070436,16.8657388 C91.7648673,16.8657388 94.7385336,17.531485 96.9281317,18.8629974 C99.1177298,20.1945097 100.907847,22.1769539 102.298538,24.8103895 C105.139098,21.7331165 107.728111,19.6397146 110.065655,18.5301209 C112.403198,17.4205273 115.288099,16.8657388 118.720442,16.8657388 C123.780189,16.8657388 127.730283,18.3673663 130.570842,21.3706664 C133.411402,24.3739665 134.831661,29.0711757 134.831661,35.462435 L134.831661,65.066245 L116.723183,65.066245 L116.723183,38.2142135 C116.723183,36.0837937 116.308941,34.5007972 115.480444,33.4651765 C114.267289,31.8377725 112.758264,31.0240827 110.953325,31.0240827 C108.822905,31.0240827 107.10676,31.7933894 105.804836,33.3320259 C104.502913,34.8706624 103.851961,37.3413205 103.851961,40.7440743 L103.851961,65.066245 L85.7434839,65.066245 L85.7434839,39.1018839 C85.7434839,37.0306425 85.625129,35.6251783 85.3884157,34.8854492 C85.0037566,33.7018827 84.3380104,32.7476465 83.3911571,32.022712 C82.4443039,31.2977775 81.3347269,30.9353157 80.0623929,30.9353157 C77.9911515,30.9353157 76.2898001,31.7194167 74.9582877,33.2876424 C73.6267754,34.855868 72.9610292,37.4300866 72.9610292,41.0103754 L72.9610292,65.066245 L54.8525517,65.066245 L54.8525517,17.9309434 Z M141,0 L159.108477,0 L159.108477,65.066245 L141,65.066245 L141,0 Z" id="sml" fill="#4A4A4A"></path>
    </g>
</svg>